<svg xmlns="http://www.w3.org/2000/svg" viewBox="0 0 40 14">
	<path fill="#939598" d="M28.735 1.861a.5.5 0 0 0 0 1h1.006c.385 0 .753.157 1.023.432h.002l2.355 2.385c.137.138.256.209.256.209s-.119.07-.256.209L30.766 8.48c-.27.275-.64.43-1.025.43h-1.006a.5.5 0 0 0 0 1h1.006c.652 0 1.278-.262 1.736-.726l.002-.002 2.353-2.385h.002a.266.266 0 0 1 .391 0h.002l2.346 2.377a2.441 2.441 0 0 0 1.736.728h.818a.5.5 0 0 0 0-1h-.818c-.382 0-.752-.155-1.025-.431l-2.346-2.375a1.273 1.273 0 0 0-.264-.21c.002.001.127-.07.264-.208L37.284 3.3c.27-.275.64-.43 1.025-.43h.818a.5.5 0 0 0 0-1h-.82c-.653 0-1.277.264-1.734.729l-2.346 2.377a.266.266 0 0 1-.395 0L31.48 2.592a2.445 2.445 0 0 0-1.738-.73Zm-4.05.006a.5.5 0 0 0-.5.5.5.5 0 0 0 .5.5H25.7a.583.583 0 0 1 .585.596.5.5 0 0 0 0 .002v5.998a.5.5 0 0 0 .5.5.5.5 0 0 0 .5-.5V3.469a1.598 1.598 0 0 0-1.58-1.602.5.5 0 0 0-.003 0zm-5.624.002c-1.732 0-3.143 1.431-3.143 3.176v8.027a.5.5 0 0 0 .5.5.5.5 0 0 0 .5-.5V5.045c0-1.21.957-2.175 2.14-2.176l2.34.004c1.183.002 2.136.963 2.136 2.17v1.71c0 1.21-.957 2.175-2.141 2.175h-3.31a.5.5 0 0 0-.5.5.5.5 0 0 0 .5.5h3.31c1.732 0 3.14-1.431 3.14-3.174V5.043c0-1.74-1.404-3.168-3.132-3.172z" />
	<path fill="#32bcad" d="M 26.775391 0 A 0.29 0.29 0 0 0 26.568359 0.087890625 L 26.107422 0.55273438 A 0.299 0.299 0 0 0 26.107422 0.97265625 L 26.568359 1.4375 A 0.29 0.29 0 0 0 26.982422 1.4375 L 27.441406 0.97265625 A 0.299 0.299 0 0 0 27.441406 0.55273438 L 26.982422 0.087890625 A 0.29 0.29 0 0 0 26.775391 0 z M 6.5058594 0.97851562 A 1.94 1.94 0 0 0 5.4277344 1.5332031 L 2.9804688 4.0136719 L 3.3613281 4.0136719 C 3.8663276 4.0136719 4.3412191 4.2132191 4.6992188 4.5742188 L 6.640625 6.5371094 C 6.7806249 6.6791092 7.0064845 6.6791092 7.1464844 6.5371094 L 9.0800781 4.5800781 A 1.868 1.868 0 0 1 10.417969 4.0214844 L 10.650391 4.0214844 L 8.1953125 1.5332031 A 1.94 1.94 0 0 0 6.5058594 0.97851562 z M 2.4335938 4.5683594 L 0.9453125 6.0761719 A 2 2 0 0 0 0.9453125 8.8808594 L 2.4355469 10.386719 A 0.279 0.279 0 0 1 2.5351562 10.367188 L 3.3632812 10.367188 C 3.7132809 10.367188 4.0528284 10.224609 4.2988281 9.9746094 L 6.2363281 8.0097656 A 0.94 0.94 0 0 1 7.5488281 8.0097656 L 9.4804688 9.9667969 C 9.7264685 10.216797 10.068969 10.359375 10.417969 10.359375 L 11.091797 10.359375 A 0.28 0.28 0 0 1 11.195312 10.380859 L 12.679688 8.8808594 A 2 2 0 0 0 12.679688 6.0761719 L 11.195312 4.5742188 A 0.28 0.28 0 0 1 11.091797 4.5957031 L 10.417969 4.5957031 C 10.067969 4.5957031 9.7264685 4.7392815 9.4804688 4.9882812 L 7.5488281 6.9453125 A 0.92 0.92 0 0 1 6.2382812 6.9453125 L 4.2988281 4.9804688 A 1.324 1.324 0 0 0 3.3613281 4.5878906 L 2.5332031 4.5878906 A 0.278 0.278 0 0 1 2.4335938 4.5683594 z M 6.8925781 8.3144531 A 0.364 0.364 0 0 0 6.6386719 8.4179688 L 4.6992188 10.380859 A 1.868 1.868 0 0 1 3.3632812 10.939453 L 2.9824219 10.939453 L 5.4296875 13.419922 A 1.94 1.94 0 0 0 8.1972656 13.419922 L 10.650391 10.933594 L 10.417969 10.933594 L 10.417969 10.935547 C 9.9129693 10.935547 9.4361246 10.735 9.078125 10.375 L 7.1464844 8.4179688 A 0.364 0.364 0 0 0 6.8925781 8.3144531 z " />
</svg>
